<svg xmlns="http://www.w3.org/2000/svg" viewBox="0 0 97.03 96.98"><defs><style>.cls-1{font-size:11.37px;fill:#9a9388;font-family:Miracle;}</style></defs><g id="Layer_2" data-name="Layer 2"><g id="레이어_1" data-name="레이어 1"><text class="cls-1" transform="translate(41.29 10.11) rotate(-5.84)">S</text><text class="cls-1" transform="translate(48.28 9.21) rotate(7.42)">W</text><text class="cls-1" transform="translate(59.54 11.06) rotate(20.29)">E</text><text class="cls-1" transform="matrix(0.87, 0.49, -0.49, 0.87, 65.26, 13.25)">E</text><text class="cls-1" transform="matrix(0.77, 0.64, -0.64, 0.77, 70.36, 16.06)">T</text><text class="cls-1" transform="translate(76.65 21.58) rotate(48.2)"> </text><text class="cls-1" transform="translate(78.99 24.26) rotate(53.42)"> </text><text class="cls-1" transform="matrix(0.47, 0.88, -0.88, 0.47, 81.15, 27)">~</text><text class="cls-1" transform="translate(84.66 33.99) rotate(70.11)"> </text><text class="cls-1" transform="translate(85.83 37.35) rotate(75.39)"> </text><text class="cls-1" transform="translate(86.86 40.68) rotate(84.74)">C</text><text class="cls-1" transform="translate(87.65 49.7) rotate(98.33)">O</text><text class="cls-1" transform="translate(86.12 59.22) rotate(111.92)">D</text><text class="cls-1" transform="matrix(-0.51, 0.86, -0.86, -0.51, 82.54, 67.33)">I</text><text class="cls-1" transform="matrix(-0.63, 0.78, -0.78, -0.63, 81.03, 70.09)">N</text><text class="cls-1" transform="translate(76.04 76.25) rotate(141.58)">G</text><text class="cls-1" transform="translate(68.49 81.84) rotate(151.01)"> </text><text class="cls-1" transform="translate(65.35 83.53) rotate(156.28)"> </text><text class="cls-1" transform="translate(62.07 84.92) rotate(161.57)"> </text><text class="cls-1" transform="matrix(-0.98, 0.22, -0.22, -0.98, 58.69, 86.02)">•</text><text class="cls-1" transform="matrix(-0.99, 0.12, -0.12, -0.99, 54.66, 86.86)"> </text><text class="cls-1" transform="matrix(-1, 0.03, -0.03, -1, 51.1, 87.26)"> </text><text class="cls-1" transform="matrix(-1, -0.06, 0.06, -1, 47.53, 87.33)"> </text><text class="cls-1" transform="translate(43.97 87.08) rotate(-171.4)"> </text><text class="cls-1" transform="translate(40.51 86.63) rotate(-163.52)">A</text><text class="cls-1" transform="translate(33.74 84.59) rotate(-152.44)">B</text><text class="cls-1" transform="translate(26.77 80.97) rotate(-139.61)">O</text><text class="cls-1" transform="translate(19.52 74.57) rotate(-126.75)">U</text><text class="cls-1" transform="matrix(-0.43, -0.9, 0.9, -0.43, 14.98, 68.44)">T</text><text class="cls-1" transform="matrix(-0.28, -0.96, 0.96, -0.28, 11.63, 60.78)"> </text><text class="cls-1" transform="matrix(-0.2, -0.98, 0.98, -0.2, 10.67, 57.36)"> </text><text class="cls-1" transform="matrix(-0.05, -1, 1, -0.05, 9.89, 53.97)">~</text><text class="cls-1" transform="translate(9.71 46.11) rotate(-84.7)"> </text><text class="cls-1" transform="translate(10.08 42.58) rotate(-79.47)"> </text><text class="cls-1" transform="matrix(0.27, -0.96, 0.96, 0.27, 10.78, 39.06)"> </text><text class="cls-1" transform="matrix(0.43, -0.9, 0.9, 0.43, 11.53, 35.71)">M</text><text class="cls-1" transform="translate(15.87 27.2) rotate(-53.04)">E</text><text class="cls-1" transform="matrix(0.7, -0.72, 0.72, 0.7, 19.69, 22.36)"> </text><text class="cls-1" transform="translate(22.19 19.83) rotate(-40.73)"> </text><text class="cls-1" transform="matrix(0.81, -0.58, 0.58, 0.81, 24.94, 17.52)"> </text><text class="cls-1" transform="translate(27.86 15.49) rotate(-29.81)">•</text><text class="cls-1" transform="translate(31.45 13.5) rotate(-24.15)"> </text></g></g></svg>