<svg xmlns="http://www.w3.org/2000/svg" viewBox="0 0 336.03 336.03"><defs>
<style>.cls-2{font-size:19px; fill:#fff; font-family:Abel-Regular, Abel;}</style>
</defs><g id="Layer_2" data-name="Layer 2"><g id="레이어_1" data-name="레이어 1">
<text class="cls-2" transform="translate(140.68 20.3) rotate(-9.52)">I</text>
<text class="cls-2" transform="translate(147.67 19.11) rotate(-5.73)">F</text>
<text class="cls-2" transform="translate(160.42 18.01) rotate(-1.94)"> </text>
<text class="cls-2" transform="translate(167.65 17.76) rotate(1.69)">Y</text>
<text class="cls-2" transform="matrix(0.99, 0.11, -0.11, 0.99, 179.74, 18.19)">O</text>
<text class="cls-2" transform="translate(193.18 19.83) rotate(11.72)">U</text>
<text class="cls-2" transform="translate(206.46 22.79) rotate(15.72)"> </text>
<text class="cls-2" transform="matrix(0.94, 0.35, -0.35, 0.94, 213.43, 24.61)">W</text>
<text class="cls-2" transform="translate(229.9 31.06) rotate(26.22)">A</text>
<text class="cls-2" transform="translate(240.71 36.45) rotate(31.2)">N</text>
<text class="cls-2" transform="translate(252.58 43.82) rotate(36.05)">T</text>
<text class="cls-2" transform="matrix(0.77, 0.64, -0.64, 0.77, 261.87, 50.75)"> </text>
<text class="cls-2" transform="matrix(0.73, 0.68, -0.68, 0.73, 267.46, 55.39)">T</text>
<text class="cls-2" transform="translate(275.81 63.31) rotate(47.96)">O</text>
<text class="cls-2" transform="matrix(0.62, 0.79, -0.79, 0.62, 284.78, 73.55)"> </text>
<text class="cls-2" transform="translate(289.28 79.25) rotate(55.83)">K</text>
<text class="cls-2" transform="matrix(0.48, 0.87, -0.87, 0.48, 296.63, 90.25)">N</text>
<text class="cls-2" transform="translate(303.3 102.51) rotate(66.27)">O</text>
<text class="cls-2" transform="translate(308.73 114.86) rotate(72.33)">W</text>
<text class="cls-2" transform="translate(313.92 132.25) rotate(77.2)"> </text>
<text class="cls-2" transform="translate(315.52 139.31) rotate(80.92)">A</text>
<text class="cls-2" transform="translate(317.36 151.28) rotate(85.73)">B</text>
<text class="cls-2" transform="translate(318.26 164.38) rotate(90.93)">O</text>
<text class="cls-2" transform="translate(317.96 177.94) rotate(95.86)">U</text>
<text class="cls-2" transform="translate(316.44 191.41) rotate(100.64)">T</text>
<text class="cls-2" transform="translate(314.16 202.78) rotate(104.26)"> </text>
<text class="cls-2" transform="translate(312.46 209.78) rotate(108.74)">M</text>
<text class="cls-2" transform="translate(307.14 224.89) rotate(114.33)">E</text>
<text class="cls-2" transform="translate(301.54 236.84) rotate(118.24)"> </text>
<text class="cls-2" transform="matrix(-0.52, 0.86, -0.86, -0.52, 298.04, 243.23)"> </text>
<text class="cls-2" transform="translate(294.3 249.45) rotate(124.74)">•</text>
<text class="cls-2" transform="matrix(-0.62, 0.78, -0.78, -0.62, 287.2, 259.41)"> </text>
<text class="cls-2" transform="matrix(-0.66, 0.75, -0.75, -0.66, 282.62, 265.09)"> </text>
<text class="cls-2" transform="translate(277.86 270.56) rotate(135.13)">C</text>
<text class="cls-2" transform="matrix(-0.76, 0.65, -0.65, -0.76, 268.29, 279.88)">L</text>
<text class="cls-2" transform="matrix(-0.8, 0.6, -0.6, -0.8, 259.6, 287.05)">I</text>
<text class="cls-2" transform="matrix(-0.84, 0.54, -0.54, -0.84, 253.93, 291.31)">C</text>
<text class="cls-2" transform="translate(242.67 298.45) rotate(152.25)">K</text>
<text class="cls-2" transform="translate(230.79 304.49) rotate(156.19)"> </text>
<text class="cls-2" transform="translate(224.16 307.41) rotate(159.8)">T</text>
<text class="cls-2" transform="translate(213.34 311.34) rotate(164.7)">H</text>
<text class="cls-2" transform="translate(199.74 314.84) rotate(168.76)">I</text>
<text class="cls-2" transform="translate(192.8 316.25) rotate(172.65)">S</text>
<text class="cls-2" transform="translate(179.58 317.76) rotate(176.55)"> </text>
<text class="cls-2" transform="matrix(-1, 0.02, -0.02, -1, 172.27, 318.13)"> </text>
<text class="cls-2" transform="translate(165.04 318.23) rotate(-177.04)">•</text>
<text class="cls-2" transform="matrix(-0.99, -0.12, 0.12, -0.99, 152.84, 317.45)"> </text>
<text class="cls-2" transform="matrix(-0.99, -0.16, 0.16, -0.99, 145.6, 316.54)"> </text>
<text class="cls-2" transform="translate(138.45 315.39) rotate(-166.49)">H</text>
<text class="cls-2" transform="translate(124.9 312.01) rotate(-161.28)">E</text>
<text class="cls-2" transform="translate(112.51 307.66) rotate(-156.61)">L</text>
<text class="cls-2" transform="translate(102.24 303.13) rotate(-152.31)">L</text>
<text class="cls-2" transform="translate(92.35 297.88) rotate(-147.58)">O</text>
<text class="cls-2" transform="translate(80.96 290.42) rotate(-143.62)"> </text>
<text class="cls-2" transform="translate(75.13 286.05) rotate(-140.87)">I</text>
<text class="cls-2" transform="translate(69.61 281.48) rotate(-138.27)">'</text>
<text class="cls-2" transform="translate(64.71 277.23) rotate(-133.99)">M</text>
<text class="cls-2" transform="translate(53.72 265.46) rotate(-129.56)"> </text>
<text class="cls-2" transform="matrix(-0.58, -0.81, 0.81, -0.58, 49.1, 259.91)">K</text>
<text class="cls-2" transform="translate(41.46 249.05) rotate(-120.83)">A</text>
<text class="cls-2" transform="translate(35.32 238.64) rotate(-115.85)">N</text>
<text class="cls-2" transform="translate(29.34 226.03) rotate(-110.57)">G</text>
<text class="cls-2" transform="matrix(-0.29, -0.96, 0.96, -0.29, 24.74, 213.22)"> </text>
<text class="cls-2" transform="translate(22.67 206.28) rotate(-102.84)">Y</text>
<text class="cls-2" transform="matrix(-0.14, -0.99, 0.99, -0.14, 20.05, 194.48)">O</text>
<text class="cls-2" transform="translate(18.29 181.04) rotate(-92.79)">O</text>
<text class="cls-2" transform="translate(17.73 167.51) rotate(-87.63)">N</text>
<text class="cls-2" transform="translate(18.51 153.52) rotate(-83.61)"> </text>
<text class="cls-2" transform="translate(19.38 146.28) rotate(-80.83)"> </text>
<text class="cls-2" transform="translate(20.53 139.11) rotate(-77.09)">•</text>
<text class="cls-2" transform="translate(23.42 127.22) rotate(-73.34)"> </text>
<text class="cls-2" transform="translate(25.57 120.25) rotate(-70.54)"> </text>
<text class="cls-2" transform="translate(27.96 113.42) rotate(-66.58)">C</text>
<text class="cls-2" transform="translate(33.39 101.23) rotate(-61.88)">L</text>
<text class="cls-2" transform="translate(38.82 91.36) rotate(-58.37)">I</text>
<text class="cls-2" transform="matrix(0.58, -0.81, 0.81, 0.58, 42.52, 85.3)">C</text>
<text class="cls-2" transform="translate(50.35 74.52) rotate(-49.42)">K</text>
<text class="cls-2" transform="translate(59.16 64.53) rotate(-45.52)"> </text>
<text class="cls-2" transform="matrix(0.74, -0.67, 0.67, 0.74, 64.25, 59.35)">T</text>
<text class="cls-2" transform="translate(72.86 51.67) rotate(-37.1)">H</text>
<text class="cls-2" transform="translate(84.18 43.38) rotate(-33.08)">I</text>
<text class="cls-2" transform="translate(90.1 39.49) rotate(-29.2)">S</text>
<text class="cls-2" transform="matrix(0.9, -0.43, 0.43, 0.9, 101.8, 33.16)"> </text>
<text class="cls-2" transform="matrix(0.92, -0.38, 0.38, 0.92, 108.43, 30.1)"> </text>
<text class="cls-2" transform="matrix(0.95, -0.32, 0.32, 0.95, 115.11, 27.33)">•</text>
<text class="cls-2" transform="matrix(0.97, -0.26, 0.26, 0.97, 126.74, 23.56)"> </text>
<text class="cls-2" transform="translate(133.81 21.73) rotate(-12.18)"> </text>
</g></g></svg>