<svg xmlns="http://www.w3.org/2000/svg" viewBox="0 0 334.84 334.84">
<defs>
<style>.cls-1{font-size:19px; fill:#fff; font-family:FreightBigProLight-Regular, FreightBig Pro;}</style>
</defs>
<g id="Layer_2" data-name="Layer 2">
<g id="레이어_1" data-name="레이어 1"><text class="cls-1" transform="matrix(0.99, -0.17, 0.17, 0.99, 140.06, 19.52)"> </text>
<text class="cls-1" transform="translate(144.62 18.63) rotate(-6.23)">R</text>
<text class="cls-1" transform="translate(157.97 17.23) rotate(-1.33)">E</text>
<text class="cls-1" transform="matrix(1, 0.06, -0.06, 1, 170.51, 16.94)">A</text>
<text class="cls-1" transform="translate(183.15 17.7) rotate(8.56)">C</text>
<text class="cls-1" transform="translate(197.17 19.85) rotate(13.78)">T</text>
<text class="cls-1" transform="matrix(0.95, 0.3, -0.3, 0.95, 210.33, 23.25)"> </text>
<text class="cls-1" transform="translate(214.81 24.66) rotate(19.08)"> </text>
<text class="cls-1" transform="translate(219.24 26.11) rotate(22.26)">P</text>
<text class="cls-1" transform="matrix(0.89, 0.46, -0.46, 0.89, 230.13, 30.57)">R</text>
<text class="cls-1" transform="translate(241.36 36.25) rotate(32.27)">O</text>
<text class="cls-1" transform="translate(254.35 44.67) rotate(36.5)">J</text>
<text class="cls-1" transform="translate(259.92 48.72) rotate(40.21)">E</text>
<text class="cls-1" transform="matrix(0.7, 0.71, -0.71, 0.7, 269.51, 56.81)">C</text>
<text class="cls-1" transform="translate(279.45 66.92) rotate(50.5)">T</text>
<text class="cls-1" transform="translate(287.97 77.51) rotate(53.96)"> </text>
<text class="cls-1" transform="matrix(0.56, 0.83, -0.83, 0.56, 290.74, 81.34)"> </text>
<text class="cls-1" transform="translate(293.39 85.25) rotate(57.55)"> </text>
<text class="cls-1" transform="translate(295.92 89.16) rotate(60.31)">•</text>
<text class="cls-1" transform="translate(300.71 97.73) rotate(63.07)"> </text>
<text class="cls-1" transform="translate(302.83 101.93) rotate(64.87)"> </text>
<text class="cls-1" transform="translate(305.07 105.91) rotate(69.87)">W</text>
<text class="cls-1" transform="matrix(0.24, 0.97, -0.97, 0.24, 312.06, 125.74)">E</text>
<text class="cls-1" transform="translate(315.01 137.97) rotate(80.95)">B</text>
<text class="cls-1" transform="translate(316.81 150.07) rotate(84.17)"> </text>
<text class="cls-1" transform="translate(317.27 154.8) rotate(85.97)"> </text>
<text class="cls-1" transform="translate(317.67 159.43) rotate(89.07)">P</text>
<text class="cls-1" transform="translate(317.87 171.21) rotate(93.8)">R</text>
<text class="cls-1" transform="matrix(-0.16, 0.99, -0.99, -0.16, 317.09, 183.76)">O</text>
<text class="cls-1" transform="translate(314.48 199.04) rotate(103.23)">J</text>
<text class="cls-1" transform="translate(312.98 205.72) rotate(106.97)">E</text>
<text class="cls-1" transform="translate(309.33 217.74) rotate(112.18)">C</text>
<text class="cls-1" transform="translate(303.95 230.82) rotate(117.38)">T</text>
<text class="cls-1" transform="matrix(-0.51, 0.86, -0.86, -0.51, 297.55, 242.82)"> </text>
<text class="cls-1" transform="translate(295.11 246.88) rotate(122.66)"> </text>
<text class="cls-1" transform="translate(292.55 250.85) rotate(124.46)"> </text>
<text class="cls-1" transform="matrix(-0.59, 0.81, -0.81, -0.59, 289.87, 254.73)"> </text>
<text class="cls-1" transform="translate(287.15 258.51) rotate(129)">•</text>
<text class="cls-1" transform="translate(280.9 266.09) rotate(131.74)"> </text>
<text class="cls-1" transform="translate(277.74 269.61) rotate(133.54)"> </text>
<text class="cls-1" transform="translate(274.49 273.01) rotate(135.32)"> </text>
<text class="cls-1" transform="translate(271.11 276.33) rotate(137.11)"> </text>
<text class="cls-1" transform="matrix(-0.76, 0.65, -0.65, -0.76, 267.68, 279.52)">J</text>
<text class="cls-1" transform="matrix(-0.8, 0.6, -0.6, -0.8, 262.87, 283.8)">A</text>
<text class="cls-1" transform="matrix(-0.84, 0.54, -0.54, -0.84, 253.77, 290.72)">V</text>
<text class="cls-1" transform="translate(244.01 297.01) rotate(151.87)">A</text>
<text class="cls-1" transform="matrix(-0.92, 0.4, -0.4, -0.92, 231.88, 303.4)">S</text>
<text class="cls-1" transform="translate(221.69 307.87) rotate(161.51)">C</text>
<text class="cls-1" transform="translate(207.85 312.43) rotate(166.88)">R</text>
<text class="cls-1" transform="translate(194.69 315.35) rotate(170.85)">I</text>
<text class="cls-1" transform="translate(187.5 316.56) rotate(174.5)">P</text>
<text class="cls-1" transform="translate(175.76 317.67) rotate(179.07)">T</text>
<text class="cls-1" transform="translate(162.2 317.71) rotate(-177.34)"> </text>
<text class="cls-1" transform="matrix(-1, -0.08, 0.08, -1, 157.46, 317.48)"> </text>
<text class="cls-1" transform="translate(152.77 317.09) rotate(-173.76)"> </text>
<text class="cls-1" transform="translate(148.05 316.56) rotate(-171.95)"> </text>
<text class="cls-1" transform="translate(143.45 315.95) rotate(-169.2)">•</text>
<text class="cls-1" transform="matrix(-0.97, -0.23, 0.23, -0.97, 133.82, 314.03)"> </text>
<text class="cls-1" transform="matrix(-0.96, -0.27, 0.27, -0.96, 129.22, 312.9)"> </text>
<text class="cls-1" transform="translate(124.67 311.64) rotate(-162.79)"> </text>
<text class="cls-1" transform="matrix(-0.95, -0.33, 0.33, -0.95, 120.18, 310.23)"> </text>
<text class="cls-1" transform="translate(115.76 308.82) rotate(-157.5)">R</text>
<text class="cls-1" transform="translate(103.39 303.64) rotate(-152.53)">E</text>
<text class="cls-1" transform="matrix(-0.84, -0.54, 0.54, -0.84, 92.24, 297.85)">A</text>
<text class="cls-1" transform="matrix(-0.79, -0.61, 0.61, -0.79, 81.54, 291.07)">C</text>
<text class="cls-1" transform="matrix(-0.74, -0.68, 0.68, -0.74, 70.31, 282.41)">T</text>
<text class="cls-1" transform="translate(60.42 273.1) rotate(-133.93)"> </text>
<text class="cls-1" transform="translate(57.17 269.69) rotate(-132.15)"> </text>
<text class="cls-1" transform="matrix(-0.63, -0.78, 0.78, -0.63, 53.99, 266.29)">P</text>
<text class="cls-1" transform="translate(46.57 257.15) rotate(-124.24)">R</text>
<text class="cls-1" transform="translate(39.45 246.76) rotate(-119.05)">O</text>
<text class="cls-1" transform="translate(32.09 233.13) rotate(-114.79)">J</text>
<text class="cls-1" transform="matrix(-0.36, -0.93, 0.93, -0.36, 29.16, 226.94)">E</text>
<text class="cls-1" transform="translate(24.64 215.24) rotate(-105.86)">C</text>
<text class="cls-1" transform="translate(20.8 201.57) rotate(-100.62)">T</text>
<text class="cls-1" transform="translate(18.46 188.21) rotate(-97.15)"> </text>
<text class="cls-1" transform="matrix(-0.09, -1, 1, -0.09, 17.89, 183.52)"> </text>
<text class="cls-1" transform="matrix(-0.06, -1, 1, -0.06, 17.46, 178.81)"> </text>
<text class="cls-1" transform="translate(17.13 174.16) rotate(-90.93)">•</text>
<text class="cls-1" transform="translate(17.06 164.34) rotate(-88.14)"> </text>
<text class="cls-1" transform="translate(17.23 159.62) rotate(-86.36)"> </text>
<text class="cls-1" transform="translate(17.55 154.9) rotate(-84.57)"> </text>
<text class="cls-1" transform="translate(18.01 150.2) rotate(-82.78)"> </text>
<text class="cls-1" transform="matrix(0.21, -0.98, 0.98, 0.21, 18.25, 145.63)">W</text>
<text class="cls-1" transform="translate(22.95 125.14) rotate(-71.45)">E</text>
<text class="cls-1" transform="translate(26.99 113.22) rotate(-66.7)">B</text>
<text class="cls-1" transform="matrix(0.45, -0.89, 0.89, 0.45, 31.95, 102.05)"> </text>
<text class="cls-1" transform="translate(34.07 97.83) rotate(-61.67)"> </text>
<text class="cls-1" transform="translate(36.33 93.67) rotate(-59.86)"> </text>
<text class="cls-1" transform="translate(38.59 89.62) rotate(-56.72)">P</text>
<text class="cls-1" transform="matrix(0.62, -0.79, 0.79, 0.62, 45.06, 79.77)">R</text>
<text class="cls-1" transform="translate(52.78 69.83) rotate(-46.78)">O</text>
<text class="cls-1" transform="matrix(0.74, -0.68, 0.68, 0.74, 63.53, 58.66)">J</text>
<text class="cls-1" transform="matrix(0.78, -0.63, 0.63, 0.78, 68.53, 53.98)">E</text>
<text class="cls-1" transform="translate(78.29 46.1) rotate(-33.72)">C</text>
<text class="cls-1" transform="matrix(0.88, -0.48, 0.48, 0.88, 90.11, 38.25)">T</text>
<text class="cls-1" transform="matrix(0.91, -0.42, 0.42, 0.91, 102.11, 31.92)"> </text>
<text class="cls-1" transform="translate(106.41 29.93) rotate(-23.23)"> </text>
<text class="cls-1" transform="matrix(0.93, -0.37, 0.37, 0.93, 110.76, 28.08)"> </text>
<text class="cls-1" transform="translate(115.07 26.34) rotate(-18.65)">•</text>
</g>
</g>
</svg>